#!OML:ASF H:\Male1\Project 1\Capture day 1\Session 1\Male1.ASF
:FULLY-SPECIFIED
:DEGREES
848
root 13.5741 14.8377 0.179894 -28.5614 -96.8066 27.2096
lowerback 8.22515 1.56623 -2.04234
upperback 6.30467 1.68956 -2.47798
thorax 1.935 0.70667 -1.52525
lowerneck -8.8508 3.67605 8.22547
upperneck 9.04432 4.08017 -2.46829
head 4.37976 2.14169 -1.82347
rclavicle 1.07344e-014 2.06736e-014
rhumerus -54.5376 20.942 -96.2401
rradius 112.403
rwrist -18.6755
rhand -26.9201 10.9987
rfingers 7.12502
rthumb -0.342954 -18.9808
lclavicle 1.07344e-014 2.06736e-014
lhumerus -42.8812 -7.0008 85.3561
lradius 104.725
lwrist 15.0069
lhand -23.3731 2.71115
lfingers 7.12502
lthumb 3.0828 32.6686
rfemur -5.66306 12.1301 18.1103
rtibia 36.7315
rfoot -33.0492 -27.7524
rtoes -27.2124
lfemur -20.9699 -15.8068 -9.12453
ltibia 42.2767
lfoot -22.8044 16.5352
ltoes -17.9988
849
root 13.4754 14.8425 0.315266 -25.0918 -96.6071 23.3161
lowerback 8.3629 1.64021 -2.39659
upperback 6.30817 1.75367 -2.64909
thorax 1.85954 0.727482 -1.51185
lowerneck -9.05088 3.51712 7.97623
upperneck 9.41749 3.88013 -2.44437
head 4.51118 2.04016 -1.78582
rclavicle 1.31198e-014 3.65764e-014
rhumerus -54.5898 20.9236 -96.5559
rradius 112.553
rwrist -19.0253
rhand -27.0486 10.7618
rfingers 7.12502
rthumb -0.467057 -19.2174
lclavicle 1.31198e-014 3.65764e-014
lhumerus -43.8734 -7.47957 85.8958
lradius 105.315
lwrist 14.7661
lhand -24.1127 2.54393
lfingers 7.12502
lthumb 2.3685 32.5105
rfemur -6.06638 10.368 16.9239
rtibia 38.4944
rfoot -32.1012 -27.337
rtoes -26.7253
lfemur -20.1754 -15.4256 -10.4956
ltibia 42.2567
lfoot -23.2632 15.9506
ltoes -15.7933
850
root 13.3835 14.8474 0.446054 -22.7261 -96.2514 20.5338
lowerback 8.62453 1.65451 -2.57028
upperback 6.26528 1.74382 -2.80525
thorax 1.67152 0.719138 -1.58274
lowerneck -9.13976 3.38586 8.07066
upperneck 9.64737 3.72643 -2.80958
head 4.59682 1.94994 -1.92323
rclavicle -1.55052e-014 3.33958e-014
rhumerus -54.7314 20.7612 -96.933
rradius 112.758
rwrist -19.0848
rhand -27.0133 10.4656
rfingers 7.12502
rthumb -0.432967 -19.5137
lclavicle -1.55052e-014 3.33958e-014
lhumerus -45.0519 -7.85121 86.3587
lradius 106.013
lwrist 14.6855
lhand -24.5677 2.326
lfingers 7.12502
lthumb 1.92906 32.297
rfemur -6.61914 8.47304 15.9103
rtibia 40.5752
rfoot -31.2472 -27.4159
rtoes -24.7491
lfemur -19.4934 -15.4386 -11.8098
ltibia 42.2767
lfoot -23.4311 15.8183
ltoes -14.654
851
root 13.289 14.8503 0.572747 -18.3558 -95.7635 15.7503
lowerback 8.8113 1.68659 -2.98087
upperback 6.20432 1.74423 -2.94228
thorax 1.49875 0.708943 -1.50049
lowerneck -8.93056 3.22933 8.13552
upperneck 9.75483 3.5805 -3.28043
head 4.59591 1.85627 -2.09322
rclavicle -3.18055e-015 2.70347e-014
rhumerus -54.9591 20.5061 -97.177
rradius 112.937
rwrist -18.8317
rhand -26.9414 10.1576
rfingers 7.12502
rthumb -0.363515 -19.8218
lclavicle -3.18055e-015 2.70347e-014
lhumerus -46.2077 -8.11219 86.8157
lradius 106.595
lwrist 14.6995
lhand -24.7268 2.77207
lfingers 7.12502
lthumb 1.77545 32.7444
rfemur -7.29893 6.34867 14.7231
rtibia 42.9794
rfoot -30.5253 -27.5051
rtoes -21.9668
lfemur -18.7757 -15.8753 -13.4104
ltibia 42.3212
lfoot -23.5673 16.1862
ltoes -14.0109
852
root 13.1934 14.8528 0.696142 -14.8182 -95.4064 11.8009
lowerback 8.887 1.78479 -3.23132
upperback 6.22255 1.85071 -2.96908
thorax 1.47063 0.753697 -1.39827
lowerneck -8.8798 3.02046 8.09213
upperneck 9.98248 3.36672 -3.7506
head 4.65121 1.72518 -2.24848
rclavicle 9.54166e-015 -1.59028e-014
rhumerus -55.1526 20.1079 -97.1904
rradius 113.191
rwrist -18.4223
rhand -26.9424 10.0457
rfingers 7.12502
rthumb -0.364501 -19.9337
lclavicle 9.54166e-015 -1.59028e-014
lhumerus -47.1094 -8.36049 87.3519
lradius 106.93
lwrist 14.6427
lhand -25.1619 2.21287
lfingers 7.12502
lthumb 1.35519 32.1883
rfemur -8.11774 4.07199 13.8195
rtibia 45.6313
rfoot -29.6814 -27.3678
rtoes -21.445
lfemur -18.0248 -16.2924 -14.8107
ltibia 42.3835
lfoot -23.8731 16.4479
ltoes -12.6953
853
root 13.1017 14.8557 0.81453 -14.1617 -95.3131 10.8046
lowerback 8.87695 1.92071 -3.19752
upperback 6.29677 2.03636 -2.83252
thorax 1.54978 0.843863 -1.28874
lowerneck -8.99205 2.822 8.01673
upperneck 10.2031 3.17532 -4.34658
head 4.73306 1.59416 -2.43514
rclavicle -2.54444e-014 4.29375e-014
rhumerus -55.2132 19.8944 -97.0454
rradius 113.498
rwrist -18.2351
rhand -27.2827 10.0242
rfingers 7.12502
rthumb -0.693132 -19.9544
lclavicle -2.54444e-014 4.29375e-014
lhumerus -47.9092 -8.30534 87.9151
lradius 107.262
lwrist 14.625
lhand -25.3599 1.36253
lfingers 7.12502
lthumb 1.16397 31.3391
rfemur -9.14702 1.8887 13.4766
rtibia 48.3721
rfoot -28.4248 -27.3802
rtoes -22.8829
lfemur -17.3665 -16.242 -15.7185
ltibia 42.4747
lfoot -24.1906 16.3512
ltoes -11.2885
854
root 13.0107 14.8544 0.932833 -12.5678 -95.2399 8.87474
lowerback 8.8976 2.01355 -3.22611
upperback 6.36612 2.15843 -2.6759
thorax 1.60352 0.899987 -1.11973
lowerneck -9.06927 2.73757 7.79913
upperneck 10.3303 3.14764 -4.83747
head 4.78627 1.54252 -2.55504
rclavicle -3.18055e-015 -2.70347e-014
rhumerus -55.2587 19.885 -96.8533
rradius 113.711
rwrist -18.1979
rhand -27.787 9.93119
rfingers 7.12502
rthumb -1.18022 -20.0453
lclavicle -3.18055e-015 -2.70347e-014
lhumerus -48.8874 -7.82189 88.4213
lradius 107.824
lwrist 14.6364
lhand -25.4572 0.689392
lfingers 7.12502
lthumb 1.07001 30.6665
rfemur -10.2229 -0.471917 13.1234
rtibia 51.0164
rfoot -29.2998 -26.3155
rtoes -17.9387
lfemur -16.7202 -15.9625 -16.6987
ltibia 42.591
lfoot -24.3793 16.2443
ltoes -10.3378
855
root 12.9193 14.8497 1.04967 -11.7623 -95.2593 7.66495
lowerback 9.03281 2.10287 -3.11559
upperback 6.42051 2.27806 -2.51761
thorax 1.58307 0.959898 -1.03035
lowerneck -8.98556 2.58817 7.71513
upperneck 10.457 3.03145 -5.38392
head 4.80949 1.44977 -2.72233
rclavicle 1.88845e-014 -3.18055e-015
rhumerus -55.3648 19.7097 -96.6636
rradius 113.857
rwrist -18.0305
rhand -28.0538 9.63107
rfingers 7.12502
rthumb -1.43786 -20.3438
lclavicle 1.88845e-014 -3.18055e-015
lhumerus -49.9478 -7.27685 88.8179
lradius 108.354
lwrist 14.4415
lhand -25.7569 0.0152953
lfingers 7.12502
lthumb 0.780498 29.9936
rfemur -11.3047 -3.06707 12.9448
rtibia 53.4047
rfoot -28.7566 -26.5904
rtoes -17.4063
lfemur -15.9724 -15.4915 -17.6062
ltibia 42.7193
lfoot -24.3453 16.366
ltoes -10.2709
856
root 12.8249 14.8455 1.1631 -10.9297 -95.5339 6.37093
lowerback 9.20786 2.31 -2.88996
upperback 6.46392 2.5577 -2.43218
thorax 1.53692 1.10435 -1.09505
lowerneck -8.61877 2.42143 8.09563
upperneck 10.3396 2.87388 -6.19415
head 4.71705 1.34238 -3.05276
rclavicle 2.96189e-014 -5.56597e-014
rhumerus -55.4685 19.2045 -96.4946
rradius 114.002
rwrist -17.9579
rhand -27.9783 9.19621
rfingers 7.12502
rthumb -1.36492 -20.7792
lclavicle 2.96189e-014 -5.56597e-014
lhumerus -51.1741 -6.81057 89.0546
lradius 108.886
lwrist 13.969
lhand -26.0461 -0.62704
lfingers 7.12502
lthumb 0.501209 29.3521
rfemur -12.4545 -5.63025 12.9478
rtibia 55.4504
rfoot -29.4004 -26.1052
rtoes -12.4418
lfemur -15.0996 -14.9414 -18.4782
ltibia 42.8166
lfoot -24.3254 16.5774
ltoes -9.77579
857
root 12.7273 14.8423 1.27715 -7.96966 -95.8921 3.02781
lowerback 9.26613 2.55805 -2.75798
upperback 6.50559 2.89053 -2.42808
thorax 1.5546 1.27318 -1.19226
lowerneck -8.16511 2.21979 8.48859
upperneck 10.107 2.66017 -6.9176
head 4.56731 1.216 -3.36129
rclavicle 4.90998e-014 -1.59028e-014
rhumerus -55.5585 18.6745 -96.2987
rradius 114.135
rwrist -18.2118
rhand -27.8889 8.98612
rfingers 7.12502
rthumb -1.27862 -20.9898
lclavicle 4.90998e-014 -1.59028e-014
lhumerus -52.5439 -6.21645 89.2151
lradius 109.507
lwrist 13.4745
lhand -26.1378 -1.36422
lfingers 7.12502
lthumb 0.412605 28.6151
rfemur -13.7806 -8.16801 12.8645
rtibia 57.122
rfoot -28.9462 -26.1611
rtoes -12.8823
lfemur -14.2931 -14.579 -19.5528
ltibia 42.8551
lfoot -24.6085 16.656
ltoes -7.66024
